<?xml version="1.0" encoding="UTF-8"?>
<svg version="1.1" viewBox="0 0 1600 632" width="1280" height="1280" xmlns="http://www.w3.org/2000/svg">
<path transform="translate(452,241)" d="m0 0c1.41 1.94 1.41 1.94 2.5 4.5 0.41 0.942 0.82 1.88 1.24 2.85 0.623 1.53 0.623 1.53 1.26 3.09 0.655 1.57 0.655 1.57 1.32 3.17 16.3 39.9 15.6 83.7-0.514 124-2.03 4.75-4.38 9.34-6.81 13.9-14.4-2.24-27.2-10.4-37-21-0.593-0.599-1.19-1.2-1.8-1.82-16-16.9-20.8-37-20.5-59.6 0.568-19.6 10.3-38 24.3-51.5 7.78-7.17 16.2-12.1 26-16 0.846-0.402 1.69-0.804 2.56-1.22 3-0.961 4.46-0.768 7.44 0.219z"/>
<path transform="translate(1008,228)" d="m0 0h31v136h-29v-10h-2c-0.367 0.893-0.367 0.893-0.742 1.8-2.88 5.03-8.75 7.64-14 9.57-12.1 2.31-23.5 0.406-34-6.06-10.8-7.8-17.1-18.1-19.7-31.1-2.22-14.4 1.03-27.4 9.5-39.3 6.73-8.55 16.1-14.5 27-16 13.2-0.83 20.3 1.48 32 8v-53zm-33 80c-2.94 4.94-4.5 9.43-3.62 15.2 1.68 6.29 5.15 10.1 10.4 13.8 5.45 1.78 10.4 2.32 15.8-0.0391 4.86-2.99 8.84-6.29 10.5-11.9 0.813-5.95 0.537-11-3-16-4.39-4.51-8.49-7.62-14.9-8.31-5.86 0.586-11.1 3.04-15.1 7.31z"/>
<path transform="translate(312,158)" d="m0 0c-0.574 3.26-1.41 4.7-3.88 6.88-38.8 37.3-57.9 96.2-59.1 149-0.401 47.2 14.1 94.2 42 132 0.404 0.558 0.809 1.12 1.23 1.69 5.03 6.89 10.4 13.3 16.4 19.4 3.4 3.55 3.4 3.55 3.4 6.87-6.74-0.481-13.5-1.05-20.2-1.73-1.67-0.161-3.34-0.307-5.01-0.42-5.65-0.385-9.79-1.46-13.6-5.72-3.08-3.82-5.64-7.94-8.16-12.1-0.467-0.76-0.934-1.52-1.41-2.3-35.5-58.2-48.7-127-33.2-193 8.25-32.9 22.1-71.8 46.6-96.3 1.81-0.487 1.81-0.487 4-0.816 0.8-0.124 1.6-0.248 2.43-0.376 1.27-0.183 1.27-0.183 2.57-0.37 0.862-0.129 1.72-0.259 2.61-0.392 7.78-1.15 15.5-2.25 23.4-2.05z"/>
<path transform="translate(348 162)" d="m0 0c2.38 0.625 4.75 1.28 7.12 1.94-1.18 3.55-2.1 4.03-5.06 6.19-24.9 19.5-42.5 46-54.9 74.8-0.439 1.01-0.439 1.01-0.886 2.04-9.35 21.9-12.5 45.7-12.5 69.4 5.44e-4 0.83 0.00109 1.66 0.00165 2.52 0.042 14 1.03 27.4 4.37 41 0.209 0.861 0.418 1.72 0.633 2.61 3.31 13.1 8.43 25.3 14.4 37.4 0.333 0.684 0.665 1.37 1.01 2.07 11.7 23.7 29.8 47.3 51.5 62.7 0.487 0.407 0.975 0.815 1.48 1.23v2c-5.23 1.25-10.5 2.41-15.7 3.49-1.89 0.422-3.76 0.958-5.61 1.52-3.4 0.802-5.28 0.945-8.66-0.0156-11.5-7.66-20.1-20.9-28-32-0.457-0.639-0.915-1.28-1.39-1.94-11-15.5-19.1-32.2-25.6-50.1-0.28-0.765-0.559-1.53-0.848-2.32-6.71-18.8-11.2-39.3-11.4-59.3-0.00984-0.806-0.0197-1.61-0.0298-2.44-0.565-58.4 16.8-112 57.1-156 2.18-2.33 2.18-2.33 4.02-4.81 7.7-9.44 18.6-5.08 29-2.5z"/>
<path transform="translate(1078,276)" d="m0 0c0.996 2.41 0.996 2.41 1.87 5.62 0.493 1.78 0.493 1.78 0.996 3.59 0.334 1.25 0.668 2.5 1.01 3.79 0.663 2.42 1.33 4.83 1.99 7.25 0.336 1.23 0.672 2.47 1.02 3.74 1.94 7.03 4.04 14 6.11 21 0.148-0.534 0.296-1.07 0.449-1.62 1.54-5.55 3.08-11.1 4.62-16.6 0.576-2.07 1.15-4.14 1.73-6.22 0.825-2.97 1.65-5.95 2.48-8.92 0.257-0.93 0.515-1.86 0.78-2.82 0.24-0.861 0.48-1.72 0.728-2.61 0.316-1.14 0.316-1.14 0.639-2.3 0.576-1.87 0.576-1.87 1.58-3.87h25c3.38 9 3.38 9 4.26 12.2 0.2 0.72 0.4 1.44 0.606 2.18 0.203 0.746 0.407 1.49 0.616 2.26 0.327 1.18 0.327 1.18 0.66 2.39 0.686 2.48 1.37 4.97 2.05 7.46 0.468 1.7 0.936 3.4 1.4 5.09 1.14 4.13 2.28 8.27 3.41 12.4 1.41-2.67 2.44-5.21 3.24-8.13 0.22-0.801 0.44-1.6 0.667-2.43 0.23-0.854 0.461-1.71 0.698-2.59 0.241-0.882 0.483-1.76 0.731-2.67 0.768-2.81 1.53-5.62 2.29-8.44 0.52-1.91 1.04-3.82 1.56-5.73 1.28-4.67 2.54-9.35 3.81-14h34c-8.62 26-17.3 52-26.6 77.8-0.335 0.93-0.67 1.86-1.01 2.82-0.306 0.839-0.612 1.68-0.927 2.54-0.266 0.732-0.533 1.46-0.807 2.22-0.689 1.67-0.689 1.67-1.69 2.67-2 0.0876-4 0.107-6 0.0977-1.09-0.0025-2.19-5e-3 -3.31-0.00757-1.4-0.0091-2.8-0.0182-4.24-0.0276-6.65-0.0309-6.65-0.0309-13.4-0.0625-4.62-16.5-9.24-33-14-50-6.93 24.8-6.93 24.8-14 50h-27c-5.61-13.5-5.61-13.5-7.84-19.9-0.504-1.45-1.01-2.9-1.51-4.36-0.258-0.748-0.516-1.5-0.782-2.27-5.64-16.3-11.5-32.5-17.5-48.7-0.435-1.17-0.435-1.17-0.878-2.37-0.544-1.47-1.09-2.93-1.64-4.4-1.8-4.85-1.8-4.85-1.8-5.96 4.36-0.168 8.72-0.328 13.1-0.482 1.48-0.0534 2.97-0.109 4.45-0.166 2.13-0.0821 4.26-0.157 6.4-0.231 1.92-0.0707 1.92-0.0707 3.89-0.143 3.19 0.0217 3.19 0.0217 6.19 1.02z"/>
<path transform="translate(263,167)" d="m0 0c-1.49 4.12-3.56 7.68-5.88 11.4-10 16.4-18.6 33.5-25.1 51.6-0.413 1.13-0.413 1.13-0.834 2.27-16.3 45-17.9 93.1-8.17 140 0.141 0.697 0.283 1.39 0.428 2.11 6.24 30 20.2 60 37.6 85.1 1.08 1.89 1.56 3.61 1.99 5.74-13.8-3.19-32.6-11.3-41-23-18.7-30.1-28.2-67-32-102-0.112-1.03-0.224-2.05-0.34-3.11-4.56-49.2 5.67-109 34.3-150 7.18-8.05 28.2-20 39-20z"/>
<path transform="translate(367,168)" d="m0 0c8.53 2.13 16.5 6.6 24 11-3.16 3.4-6.69 5.96-10.5 8.56-7.07 4.94-13.3 10.5-19.5 16.4-1.19 1.11-1.19 1.11-2.39 2.24-27.7 26.5-43.7 66.3-44.8 104-0.342 25.6 3.92 49.4 15.2 72.5 0.34 0.7 0.681 1.4 1.03 2.12 7.62 15.5 17 28.5 29 40.9 0.739 0.79 1.48 1.58 2.24 2.39 8.21 8.57 17.6 15.8 28 21.4 0.571 0.382 1.14 0.763 1.73 1.16v2c-3.61 2.03-7.27 3.96-10.9 5.88-1.02 0.575-2.04 1.15-3.1 1.74-7.53 3.85-7.53 3.85-11.5 2.56-2.39-1.55-4.39-3.22-6.46-5.18-0.568-0.477-1.14-0.955-1.72-1.45-1.58-1.35-3.09-2.74-4.59-4.18-0.548-0.517-1.1-1.03-1.66-1.57-1.13-1.07-2.26-2.15-3.38-3.23-1.56-1.5-3.14-2.98-4.72-4.46-12.2-11.6-21.8-25.4-29.9-40.1-0.345-0.623-0.69-1.25-1.05-1.89-8.23-15.1-13.4-30.9-17.3-47.6-0.251-1.06-0.502-2.12-0.76-3.22-10.2-45.4 1.34-94.3 25.8-133 5.39-8.26 11.7-15.7 18.4-23 1.58-1.73 3.06-3.49 4.52-5.33 6.84-7.9 15.8-15 24.4-20.8z"/>
<path transform="translate(1251 278)" d="m0 0c1.67 1.37 1.67 1.37 3.98 3.62 0.66-2.31 1.32-4.62 2-7 4.25-0.0247 8.51-0.0428 12.8-0.0549 1.45-0.00504 2.9-0.0119 4.34-0.0205 2.08-0.0121 4.16-0.0178 6.23-0.0222 1.25-0.00524 2.5-0.0105 3.79-0.0159 2.87 0.114 2.87 0.114 3.87 1.11 0.0952 2.74 0.126 5.45 0.114 8.19 1.46e-4 0.858 2.92e-4 1.72 4.43e-4 2.6-6.99e-4 2.85-0.00849 5.7-0.0163 8.55-0.00186 1.97-0.00329 3.94-0.00429 5.91-0.00383 5.2-0.0137 10.4-0.0247 15.6-0.0102 5.3-0.0148 10.6-0.0198 15.9-0.0107 10.4-0.0283 20.8-0.0488 31.2h-31v-8c-0.617 0.471-1.23 0.941-1.87 1.43-9.83 7.23-17.8 9.82-30.1 8.57-12.4-2.42-22.7-8.57-30-19-7.53-12.9-9.9-25.9-6.44-40.4 1.92-7.05 4.97-12.8 9.44-18.6 0.75-0.982 0.75-0.982 1.52-1.98 12.1-13.8 36.1-18.2 51.5-7.64zm-27.7 29.5c-3.58 5.36-4.75 10.2-3.72 16.6 2.23 5.43 5.38 9.02 10.1 12.4 5.54 1.78 11.1 2.25 16.7 0.184 4.75-2.69 7.83-5.95 9.65-11.1 1.39-5.37 1.38-10-0.855-15.1-2.73-4.43-6.52-7.13-11.2-9.23-7.85-1.67-15.1 0.165-20.7 6.24z"/>
<path transform="translate(1350,228)" d="m0 0h30v66c6.58-5.6 6.58-5.6 11.9-11.8 1.65-2.22 3.17-4.23 5.12-6.19 2.86-0.246 5.64-0.374 8.51-0.414 0.841-0.0194 1.68-0.0387 2.55-0.0587 2.69-0.0599 5.38-0.106 8.07-0.152 1.82-0.0382 3.64-0.0772 5.46-0.117 4.47-0.0961 8.94-0.18 13.4-0.258-1.82 3.86-4.28 6.86-7.06 10.1-0.999 1.16-2 2.33-3 3.5-0.497 0.58-0.995 1.16-1.51 1.76-3.55 4.17-6.98 8.44-10.4 12.7-1.69 2.06-3.37 4.13-5.06 6.19-0.754 0.922-1.51 1.84-2.29 2.79-0.545 0.666-1.09 1.33-1.65 2.02 2.61 4.79 6.01 8.78 9.5 12.9 4.95 5.95 9.82 12 14.6 18.1 3.9 5.01 7.99 9.84 12.1 14.7 1.8 2.33 1.8 2.33 1.8 4.33-5.07 0.349-10.1 0.601-15.2 0.769-1.72 0.0699-3.44 0.165-5.16 0.287-13.8 0.956-13.8 0.956-18.4-2.34-3.3-3.27-5.76-7.02-8.14-11-1.39-2.26-3-4.29-4.69-6.34-0.497-0.627-0.994-1.25-1.51-1.9-0.707-0.89-0.707-0.89-1.43-1.8-0.506-0.644-1.01-1.29-1.53-1.95-2.53-3.35-2.53-3.35-5.9-5.74v30h-30v-136z"/>
<path transform="translate(405,188)" d="m0 0c2.43 1.59 4.61 3.42 6.81 5.31 0.597 0.487 1.19 0.973 1.81 1.47 1.71 1.45 1.71 1.45 4.38 4.21v4c-1.54 1.29-1.54 1.29-3.7 2.41-0.791 0.427-1.58 0.853-2.4 1.29-0.855 0.449-1.71 0.897-2.59 1.36-8.73 4.81-16.1 10.1-23.3 16.9-0.964 0.884-1.93 1.77-2.92 2.68-6.76 6.45-12.1 13.4-17.1 21.3-0.568 0.891-0.568 0.891-1.15 1.8-16.6 26.4-22.8 60.4-15.9 91 8.48 33.7 27.2 62.5 57.3 80.5 4.56 2.65 9.17 5.2 13.8 7.7-3.36 4.26-6.71 7.63-11.1 10.9-1.02 0.793-2.04 1.59-3.1 2.4-2.84 1.66-2.84 1.66-4.87 1.59-10.3-4.9-18.5-11.4-27-18.9-0.753-0.63-1.51-1.26-2.28-1.91-28.2-23.7-44.2-60.6-47.4-96.8-3.06-39.6 10.3-78 36-108 6.4-7.4 13.2-14 21-19.9 0.745-0.563 1.49-1.13 2.26-1.71 15.8-11.8 15.8-11.8 21.4-9.73z"/>
<path transform="translate(836,276)" d="m0 0h32c0.0561 5.31 0.0561 5.31 0.113 10.7 0.0462 3.44 0.0975 6.87 0.149 10.3 0.0332 2.38 0.0613 4.77 0.084 7.15 0.0336 3.43 0.0859 6.86 0.142 10.3 0.00639 1.06 0.0128 2.13 0.0194 3.22 0.108 5.48 0.339 9.6 3.49 14.3 3.81 3.16 8.11 4.15 13 4 5.23-1.57 7.98-3.47 11-8 1.22-2.44 1.16-4.09 1.21-6.82 0.0199-1 0.0399-2 0.0604-3.03 0.0167-1.08 0.0334-2.17 0.0506-3.28 0.0208-1.11 0.0416-2.21 0.063-3.35 0.0655-3.55 0.124-7.09 0.183-10.6 0.0432-2.4 0.0868-4.8 0.131-7.2 0.108-5.89 0.207-11.8 0.307-17.7h32c0.0226 11.3 0.0409 22.7 0.0518 34 0.00523 5.26 0.0123 10.5 0.0236 15.8 0.0108 5.07 0.0168 10.1 0.0194 15.2 0.00185 1.94 0.00548 3.88 0.0109 5.82 0.00721 2.71 0.00826 5.41 0.0078 8.12 0.0036 0.81 0.00719 1.62 0.0109 2.45-0.0104 5.53-0.0104 5.53-1.12 6.65-2.29 0.0879-4.59 0.107-6.88 0.0977-1.03-0.00212-1.03-0.00212-2.08-0.00429-2.2-0.00561-4.4-0.0182-6.6-0.0309-1.49-0.00501-2.98-0.00958-4.47-0.0137-3.66-0.011-7.31-0.0283-11-0.0488-0.495-4.45-0.495-4.45-1-9-0.675 0.688-0.675 0.688-1.36 1.39-7.09 6.77-14.3 9.75-24.1 10.1-9.73-0.346-18.5-3.64-25.5-10.5-9.95-11.6-10.2-28.2-10.1-42.7 0.00141-1.07 0.00283-2.15 0.00429-3.25 0.00555-3.39 0.0181-6.78 0.0309-10.2 0.00502-2.32 0.00958-4.63 0.0137-6.95 0.0101-5.64 0.0297-11.3 0.0488-16.9z"/>
<path transform="translate(810,282)" d="m0 0c9.52 7.21 16.3 19.2 18 31 1.2 14.2-2.6 26.9-11.6 38-9.22 9.94-22 14.9-35.4 15.5-14.1 0.19-26.6-4.55-37.2-14-9.28-9.8-13.4-23-13.1-36.3 1.29-13.1 7.44-24.2 16.9-33.2 17.8-14.5 43.8-12.7 62.4-0.973zm-43.8 24.7c-4.21 4.71-5.63 8.47-5.55 14.8 0.695 5.01 3.16 9.5 6.91 12.9 5.18 3.59 10.3 4.47 16.4 3.58 6.19-2.62 10.4-6.68 13.3-12.8 1.1-5.21 1.06-9.74-1.55-14.5-3.31-4.64-6.32-7.94-12-9.28-7.23-1.15-12.2 0.152-17.5 5.25z"/>
<path transform="translate(430 212)" d="m0 0c2.83 1.87 4.66 4.14 6.79 6.77 0.788 0.956 1.58 1.91 2.39 2.9 1.7 2.41 2.52 3.86 2.93 6.73-0.883 0.352-1.77 0.704-2.68 1.07-23.1 9.51-41.4 25.2-52.3 47.9-10 24.6-10.9 51.3-0.829 76.1 11.1 25 31.4 40 55.8 50.9-1.47 4.54-4.05 7.76-7.12 11.3-0.468 0.55-0.936 1.1-1.42 1.67-1.15 1.35-2.3 2.68-3.46 4.02-29-10.7-50-31.9-63-59.7-11.8-26.7-12.2-57.1-2.52-84.5 6.11-15.7 15-28.5 26.5-40.8 0.659-0.712 1.32-1.42 2-2.16 6.51-6.81 26.9-25.4 36.9-22.2z"/>
<path transform="translate(667,280)" d="m0 0c9.82 7.98 9.82 7.98 13 13v3c-1.76 1.41-1.76 1.41-4.2 2.85-0.88 0.523-1.76 1.05-2.67 1.58-1.4 0.807-1.4 0.807-2.82 1.63-0.912 0.542-1.82 1.08-2.76 1.64-4.11 2.42-8.08 4.6-12.5 6.29-0.447-0.41-0.895-0.82-1.36-1.24-4.53-4.04-7.8-6.44-14-7.13-6.01 0.611-10.6 2.84-14.6 7.44-3.43 4.88-3.59 9.16-3.06 14.9 1.81 5.44 5.38 8.78 10 12 5.67 1.89 11 1.78 16.4-0.812 2.91-1.54 3.64-2.3 5.56-5.19 2.9 0.626 5.28 1.54 7.9 2.93 0.727 0.385 1.45 0.77 2.2 1.17 0.75 0.403 1.5 0.806 2.27 1.22 0.743 0.391 1.49 0.782 2.25 1.19 4.3 2.29 8.37 4.73 12.4 7.5-7.61 11.1-17.1 18.8-30.6 21.7-16 1.86-31.2-0.796-44.1-10.8-8.83-8.15-15.6-19.7-16.3-31.9-0.101-13.2 3.06-24.1 12-34 0.523-0.626 1.05-1.25 1.59-1.9 14.7-16.4 45.3-19.4 63.4-7.1z"/>
<path transform="translate(211,198)" d="m0 0c-1.24 4.01-2.77 7.76-4.56 11.6-8.14 17.4-13.9 35.7-17.9 54.4-0.235 1.12-0.47 2.24-0.711 3.39-3.18 16.2-4.24 32.3-4.16 48.8 0.00323 1.27 0.00323 1.27 0.00653 2.56 0.0566 13.9 0.759 27.5 3.31 41.2 0.188 1.04 0.376 2.09 0.57 3.16 4.12 22.2 10.9 43.9 21.2 64 0.8 1.57 1.53 3.18 2.25 4.79-0.33 0.66-0.66 1.32-1 2-29.5-25.2-48.6-63-52.7-102-3.25-44.2 9.31-86.4 38.3-120 3.07-3.48 6.23-6.87 9.46-10.2 0.722-0.768 1.44-1.54 2.19-2.33 1.81-1.67 1.81-1.67 3.81-1.67z"/>
<path transform="translate(690,228)" d="m0 0h31v136h-31v-136z"/>
<path transform="translate(1304,228)" d="m0 0h30v136h-30v-136z"/>
</svg>
